<svg xmlns="http://www.w3.org/2000/svg" fill="#FFFFFF" xmlns:xlink="http://www.w3.org/1999/xlink" version="1.1" x="0px" y="0px" viewBox="0 0 100 125" enable-background="new 0 0 100 100" xml:space="preserve"><path d="M70.8,8.5H28.6c0,0-3.9,12.2-3.9,23.1c0,14.1,8.1,23.5,8.1,60.9c5.5,0,28.4,0,33.9,0c0-37.4,8.1-46.8,8.1-60.9  C74.7,20.8,70.8,8.5,70.8,8.5z M69.5,26.5c-0.1,0.1-0.3,0.2-0.5,0.2H35.5c-0.9,6.7-0.5,14.1,0.9,18.6c4.9,15.1,5.3,23.3,4.8,41.6  c0,0.4-0.3,0.7-0.7,0.7h-2.2c-0.4,0-0.7-0.3-0.7-0.7c0-20.1-2.9-29.4-5.2-36.8c-1.5-4.8-2.8-8.9-2.8-14.5c0-13,2.7-21.2,2.8-21.5  c0.1-0.3,0.3-0.5,0.8-0.5H67c0.3,0,0.6,0.2,0.7,0.5c0.1,0.2,1.6,5.6,2,11.9C69.7,26.2,69.6,26.4,69.5,26.5z"/><text x="0" y="115" fill="#000000" font-size="5px" font-weight="bold" font-family="'Helvetica Neue', Helvetica, Arial-Unicode, Arial, Sans-serif">Created by Anna Nebbiati</text><text x="0" y="120" fill="#000000" font-size="5px" font-weight="bold" font-family="'Helvetica Neue', Helvetica, Arial-Unicode, Arial, Sans-serif">from the Noun Project</text></svg>